<svg id="visual" viewBox="0 0 900 300" width="900" height="300" xmlns="http://www.w3.org/2000/svg" xmlns:xlink="http://www.w3.org/1999/xlink" version="1.1"><rect x="0" y="0" width="900" height="300" fill="#ffffff"></rect><path d="M0 129L18.8 133.7C37.7 138.3 75.3 147.7 112.8 146.3C150.3 145 187.7 133 225.2 133.8C262.7 134.7 300.3 148.3 337.8 157.7C375.3 167 412.7 172 450.2 168.5C487.7 165 525.3 153 562.8 146.3C600.3 139.7 637.7 138.3 675.2 135.8C712.7 133.3 750.3 129.7 787.8 135C825.3 140.3 862.7 154.7 881.3 161.8L900 169L900 301L881.3 301C862.7 301 825.3 301 787.8 301C750.3 301 712.7 301 675.2 301C637.7 301 600.3 301 562.8 301C525.3 301 487.7 301 450.2 301C412.7 301 375.3 301 337.8 301C300.3 301 262.7 301 225.2 301C187.7 301 150.3 301 112.8 301C75.3 301 37.7 301 18.8 301L0 301Z" fill="#ffffff"></path><path d="M0 196L18.8 188.2C37.7 180.3 75.3 164.7 112.8 160C150.3 155.3 187.7 161.7 225.2 166.7C262.7 171.7 300.3 175.3 337.8 177C375.3 178.7 412.7 178.3 450.2 174.8C487.7 171.3 525.3 164.7 562.8 165.8C600.3 167 637.7 176 675.2 176.7C712.7 177.3 750.3 169.7 787.8 171.2C825.3 172.7 862.7 183.3 881.3 188.7L900 194L900 301L881.3 301C862.7 301 825.3 301 787.8 301C750.3 301 712.7 301 675.2 301C637.7 301 600.3 301 562.8 301C525.3 301 487.7 301 450.2 301C412.7 301 375.3 301 337.8 301C300.3 301 262.7 301 225.2 301C187.7 301 150.3 301 112.8 301C75.3 301 37.7 301 18.8 301L0 301Z" fill="#ded7fd"></path><path d="M0 180L18.8 186C37.7 192 75.3 204 112.8 207C150.3 210 187.7 204 225.2 207.5C262.7 211 300.3 224 337.8 229C375.3 234 412.7 231 450.2 226.3C487.7 221.7 525.3 215.3 562.8 214.8C600.3 214.3 637.7 219.7 675.2 218.5C712.7 217.3 750.3 209.7 787.8 206.5C825.3 203.3 862.7 204.7 881.3 205.3L900 206L900 301L881.3 301C862.7 301 825.3 301 787.8 301C750.3 301 712.7 301 675.2 301C637.7 301 600.3 301 562.8 301C525.3 301 487.7 301 450.2 301C412.7 301 375.3 301 337.8 301C300.3 301 262.7 301 225.2 301C187.7 301 150.3 301 112.8 301C75.3 301 37.7 301 18.8 301L0 301Z" fill="#bbb0fa"></path><path d="M0 218L18.8 224C37.7 230 75.3 242 112.8 242.5C150.3 243 187.7 232 225.2 228.2C262.7 224.3 300.3 227.7 337.8 232.7C375.3 237.7 412.7 244.3 450.2 243.5C487.7 242.7 525.3 234.3 562.8 232.8C600.3 231.3 637.7 236.7 675.2 235.3C712.7 234 750.3 226 787.8 226.3C825.3 226.7 862.7 235.3 881.3 239.7L900 244L900 301L881.3 301C862.7 301 825.3 301 787.8 301C750.3 301 712.7 301 675.2 301C637.7 301 600.3 301 562.8 301C525.3 301 487.7 301 450.2 301C412.7 301 375.3 301 337.8 301C300.3 301 262.7 301 225.2 301C187.7 301 150.3 301 112.8 301C75.3 301 37.7 301 18.8 301L0 301Z" fill="#948af6"></path><path d="M0 283L18.8 282C37.7 281 75.3 279 112.8 276.2C150.3 273.3 187.7 269.7 225.2 269.5C262.7 269.3 300.3 272.7 337.8 274.7C375.3 276.7 412.7 277.3 450.2 274.3C487.7 271.3 525.3 264.7 562.8 265.7C600.3 266.7 637.7 275.3 675.2 278.3C712.7 281.3 750.3 278.7 787.8 275.8C825.3 273 862.7 270 881.3 268.5L900 267L900 301L881.3 301C862.7 301 825.3 301 787.8 301C750.3 301 712.7 301 675.2 301C637.7 301 600.3 301 562.8 301C525.3 301 487.7 301 450.2 301C412.7 301 375.3 301 337.8 301C300.3 301 262.7 301 225.2 301C187.7 301 150.3 301 112.8 301C75.3 301 37.7 301 18.8 301L0 301Z" fill="#6466f1"></path></svg>