<svg height="300" viewBox="0 0 900 300" width="900" xmlns="http://www.w3.org/2000/svg"><path d="m0 0h900v300h-900z" fill="#fff"/><path d="m0 169 18.8-4.7c18.9-4.6 56.5-14 94-12.6 37.5 1.3 74.9 13.3 112.4 12.5 37.5-.9 75.1-14.5 112.6-23.9 37.5-9.3 74.9-14.3 112.4-10.8s75.1 15.5 112.6 22.2c37.5 6.6 74.9 8 112.4 10.5s75.1 6.1 112.6.8 74.9-19.7 93.5-26.8l18.7-7.2v-129h-18.7c-18.6 0-56 0-93.5 0s-75.1 0-112.6 0-74.9 0-112.4 0-75.1 0-112.6 0-74.9 0-112.4 0-75.1 0-112.6 0-74.9 0-112.4 0-75.1 0-94 0h-18.8z" fill="#fff"/><path d="m0 102 18.8 7.8c18.9 7.9 56.5 23.5 94 28.2s74.9-1.7 112.4-6.7 75.1-8.6 112.6-10.3 74.9-1.3 112.4 2.2 75.1 10.1 112.6 9c37.5-1.2 74.9-10.2 112.4-10.9 37.5-.6 75.1 7 112.6 5.5s74.9-12.1 93.5-17.5l18.7-5.3v-104h-18.7c-18.6 0-56 0-93.5 0s-75.1 0-112.6 0-74.9 0-112.4 0-75.1 0-112.6 0-74.9 0-112.4 0-75.1 0-112.6 0-74.9 0-112.4 0-75.1 0-94 0h-18.8z" fill="#ffebc9"/><path d="m0 118 18.8-6c18.9-6 56.5-18 94-21s74.9 3 112.4-.5 75.1-16.5 112.6-21.5 74.9-2 112.4 2.7c37.5 4.6 75.1 11 112.6 11.5s74.9-4.9 112.4-3.7 75.1 8.8 112.6 12 74.9 1.8 93.5 1.2l18.7-.7v-92h-18.7c-18.6 0-56 0-93.5 0s-75.1 0-112.6 0-74.9 0-112.4 0-75.1 0-112.6 0-74.9 0-112.4 0-75.1 0-112.6 0-74.9 0-112.4 0-75.1 0-94 0h-18.8z" fill="#fcd893"/><path d="m0 80 18.8-6c18.9-6 56.5-18 94-18.5s74.9 10.5 112.4 14.3c37.5 3.9 75.1.5 112.6-4.5s74.9-11.6 112.4-10.8 75.1 9.2 112.6 10.7 74.9-3.9 112.4-2.5c37.5 1.3 75.1 9.3 112.6 9 37.5-.4 74.9-9 93.5-13.4l18.7-4.3v-54h-18.7c-18.6 0-56 0-93.5 0s-75.1 0-112.6 0-74.9 0-112.4 0-75.1 0-112.6 0-74.9 0-112.4 0-75.1 0-112.6 0-74.9 0-112.4 0-75.1 0-94 0h-18.8z" fill="#f4c65c"/><path d="m0 15 18.8 1c18.9 1 56.5 3 94 5.8 37.5 2.9 74.9 6.5 112.4 6.7s75.1-3.2 112.6-5.2 74.9-2.6 112.4.4 75.1 9.6 112.6 8.6 74.9-9.6 112.4-12.6 75.1-.4 112.6 2.5c37.5 2.8 74.9 5.8 93.5 7.3l18.7 1.5v-31h-18.7c-18.6 0-56 0-93.5 0s-75.1 0-112.6 0-74.9 0-112.4 0-75.1 0-112.6 0-74.9 0-112.4 0-75.1 0-112.6 0-74.9 0-112.4 0-75.1 0-94 0h-18.8z" fill="#e9b40a"/></svg>